{  "asset": {    "version": "2.0",    "generator": "THREE.GLTFExporter"  },  "scenes": [    {      "name": "AuxScene",      "nodes": [        1      ]    }  ],  "scene": 0,  "nodes": [    {      "mesh": 0    },    {      "children": [        0      ]    }  ],  "bufferViews": [    {      "buffer": 0,      "byteOffset": 0,      "byteLength": 154296,      "target": 34962,      "byteStride": 12    },    {      "buffer": 0,      "byteOffset": 154296,      "byteLength": 154296,      "target": 34962,      "byteStride": 12    },    {      "buffer": 0,      "byteOffset": 308592,      "byteLength": 102864,      "target": 34962,      "byteStride": 8    }  ],  "buffers": [    {      "byteLength": 411456,      "uri": "data:application/octet-stream;base64,"    }  ],  "accessors": [    {      "bufferView": 0,      "componentType": 5126,      "count": 12858,      "max": [        15.96300983428955,        45.070796966552734,        16.046588897705078      ],      "min": [        -15.96300983428955,        -45.070796966552734,        -16.04659080505371      ],      "type": "VEC3"    },    {      "bufferView": 1,      "componentType": 5126,      "count": 12858,      "max": [        0.999969482421875,        1,        1      ],      "min": [        -0.999969482421875,        -0.9948118329048157,        -1      ],      "type": "VEC3"    },    {      "bufferView": 2,      "componentType": 5126,      "count": 12858,      "max": [        0.999725341796875,        0.8796960115432739      ],      "min": [        0.00027466658502817154,        0.00027466658502817154      ],      "type": "VEC2"    }  ],  "materials": [    {      "pbrMetallicRoughness": {        "metallicFactor": 0.5,        "roughnessFactor": 0.5      },      "doubleSided": true,      "name": "mat0"    }  ],  "meshes": [    {      "primitives": [        {          "mode": 4,          "attributes": {            "POSITION": 0,            "NORMAL": 1,            "TEXCOORD_0": 2          },          "material": 0        }      ]    }  ]}