{  "asset": {    "version": "2.0",    "generator": "THREE.GLTFExporter"  },  "scenes": [    {      "name": "AuxScene",      "nodes": [        3      ]    }  ],  "scene": 0,  "nodes": [    {      "mesh": 0    },    {      "mesh": 1    },    {      "mesh": 2    },    {      "children": [        0,        1,        2      ]    }  ],  "bufferViews": [    {      "buffer": 0,      "byteOffset": 0,      "byteLength": 843264,      "target": 34962,      "byteStride": 12    },    {      "buffer": 0,      "byteOffset": 843264,      "byteLength": 843264,      "target": 34962,      "byteStride": 12    },    {      "buffer": 0,      "byteOffset": 1686528,      "byteLength": 142344,      "target": 34962,      "byteStride": 12    },    {      "buffer": 0,      "byteOffset": 1828872,      "byteLength": 142344,      "target": 34962,      "byteStride": 12    },    {      "buffer": 0,      "byteOffset": 1971216,      "byteLength": 94896,      "target": 34962,      "byteStride": 8    },    {      "buffer": 0,      "byteOffset": 2066112,      "byteLength": 65520,      "target": 34962,      "byteStride": 12    },    {      "buffer": 0,      "byteOffset": 2131632,      "byteLength": 65520,      "target": 34962,      "byteStride": 12    }  ],  "buffers": [    {      "byteLength": 2197152,      "uri": "data:application/octet-stream;base64,"    }  ],  "accessors": [    {      "bufferView": 0,      "componentType": 5126,      "count": 70272,      "max": [        53.853023529052734,        8.722963333129883,        42.56641387939453      ],      "min": [        -53.853023529052734,        -8.11994743347168,        -42.56641387939453      ],      "type": "VEC3"    },    {      "bufferView": 1,      "componentType": 5126,      "count": 70272,      "max": [        0.999969482421875,        0.6901760697364807,        0.9996337890625      ],      "min": [        -1,        -0.99993896484375,        -1      ],      "type": "VEC3"    },    {      "bufferView": 2,      "componentType": 5126,      "count": 11862,      "max": [        1.815274953842163,        4.51977014541626,        -10.290351867675781      ],      "min": [        -1.5596308708190918,        -8.722963333129883,        -19.456470489501953      ],      "type": "VEC3"    },    {      "bufferView": 3,      "componentType": 5126,      "count": 11862,      "max": [        0.999481201171875,        0.99993896484375,        0.999969482421875      ],      "min": [        -0.999481201171875,        -1,        -0.99993896484375      ],      "type": "VEC3"    },    {      "bufferView": 4,      "componentType": 5126,      "count": 11862,      "max": [        0.9980468153953552,        0.9904477000236511      ],      "min": [        -0.000030518509447574615,        0.01269569993019104      ],      "type": "VEC2"    },    {      "bufferView": 5,      "componentType": 5126,      "count": 5460,      "max": [        1.65684175491333,        4.492433071136475,        -10.317980766296387      ],      "min": [        -1.4392101764678955,        -8.56138801574707,        -19.43593978881836      ],      "type": "VEC3"    },    {      "bufferView": 6,      "componentType": 5126,      "count": 5460,      "max": [        0.999359130859375,        0.999237060546875,        0.9998779296875      ],      "min": [        -0.999359130859375,        -0.9993896484375,        -0.999603271484375      ],      "type": "VEC3"    }  ],  "materials": [    {      "pbrMetallicRoughness": {        "metallicFactor": 0.5,        "roughnessFactor": 0.5      },      "doubleSided": true,      "name": "mat1"    },    {      "pbrMetallicRoughness": {        "baseColorFactor": [          0.6038273388475408,          0.6038273388475408,          0.6038273388475408,          1        ],        "metallicFactor": 0.5,        "roughnessFactor": 0.5      },      "doubleSided": true,      "name": "mat0"    }  ],  "meshes": [    {      "primitives": [        {          "mode": 4,          "attributes": {            "POSITION": 0,            "NORMAL": 1          },          "material": 0        }      ]    },    {      "primitives": [        {          "mode": 4,          "attributes": {            "POSITION": 2,            "NORMAL": 3,            "TEXCOORD_0": 4          },          "material": 1        }      ]    },    {      "primitives": [        {          "mode": 4,          "attributes": {            "POSITION": 5,            "NORMAL": 6          },          "material": 0        }      ]    }  ]}