{  "asset": {    "version": "2.0",    "generator": "THREE.GLTFExporter"  },  "scenes": [    {      "name": "AuxScene",      "nodes": [        9      ]    }  ],  "scene": 0,  "nodes": [    {      "mesh": 0    },    {      "mesh": 1    },    {      "mesh": 2    },    {      "mesh": 3    },    {      "mesh": 4    },    {      "mesh": 5    },    {      "mesh": 6    },    {      "mesh": 7    },    {      "mesh": 8    },    {      "children": [        0,        1,        2,        3,        4,        5,        6,        7,        8      ]    }  ],  "bufferViews": [    {      "buffer": 0,      "byteOffset": 0,      "byteLength": 54792,      "target": 34962,      "byteStride": 12    },    {      "buffer": 0,      "byteOffset": 54792,      "byteLength": 54792,      "target": 34962,      "byteStride": 12    },    {      "buffer": 0,      "byteOffset": 109584,      "byteLength": 36528,      "target": 34962,      "byteStride": 8    },    {      "buffer": 0,      "byteOffset": 146112,      "byteLength": 115128,      "target": 34962,      "byteStride": 12    },    {      "buffer": 0,      "byteOffset": 261240,      "byteLength": 115128,      "target": 34962,      "byteStride": 12    },    {      "buffer": 0,      "byteOffset": 376368,      "byteLength": 76752,      "target": 34962,      "byteStride": 8    },    {      "buffer": 0,      "byteOffset": 453120,      "byteLength": 1224,      "target": 34962,      "byteStride": 12    },    {      "buffer": 0,      "byteOffset": 454344,      "byteLength": 1224,      "target": 34962,      "byteStride": 12    },    {      "buffer": 0,      "byteOffset": 455568,      "byteLength": 816,      "target": 34962,      "byteStride": 8    },    {      "buffer": 0,      "byteOffset": 456384,      "byteLength": 1224,      "target": 34962,      "byteStride": 12    },    {      "buffer": 0,      "byteOffset": 457608,      "byteLength": 1224,      "target": 34962,      "byteStride": 12    },    {      "buffer": 0,      "byteOffset": 458832,      "byteLength": 816,      "target": 34962,      "byteStride": 8    },    {      "buffer": 0,      "byteOffset": 459648,      "byteLength": 1224,      "target": 34962,      "byteStride": 12    },    {      "buffer": 0,      "byteOffset": 460872,      "byteLength": 1224,      "target": 34962,      "byteStride": 12    },    {      "buffer": 0,      "byteOffset": 462096,      "byteLength": 816,      "target": 34962,      "byteStride": 8    },    {      "buffer": 0,      "byteOffset": 462912,      "byteLength": 1224,      "target": 34962,      "byteStride": 12    },    {      "buffer": 0,      "byteOffset": 464136,      "byteLength": 1224,      "target": 34962,      "byteStride": 12    },    {      "buffer": 0,      "byteOffset": 465360,      "byteLength": 816,      "target": 34962,      "byteStride": 8    },    {      "buffer": 0,      "byteOffset": 466176,      "byteLength": 72,      "target": 34962,      "byteStride": 12    },    {      "buffer": 0,      "byteOffset": 466248,      "byteLength": 72,      "target": 34962,      "byteStride": 12    },    {      "buffer": 0,      "byteOffset": 466320,      "byteLength": 48,      "target": 34962,      "byteStride": 8    },    {      "buffer": 0,      "byteOffset": 466368,      "byteLength": 18144,      "target": 34962,      "byteStride": 12    },    {      "buffer": 0,      "byteOffset": 484512,      "byteLength": 18144,      "target": 34962,      "byteStride": 12    },    {      "buffer": 0,      "byteOffset": 502656,      "byteLength": 12096,      "target": 34962,      "byteStride": 8    },    {      "buffer": 0,      "byteOffset": 514752,      "byteLength": 22752,      "target": 34962,      "byteStride": 12    },    {      "buffer": 0,      "byteOffset": 537504,      "byteLength": 22752,      "target": 34962,      "byteStride": 12    },    {      "buffer": 0,      "byteOffset": 560256,      "byteLength": 15168,      "target": 34962,      "byteStride": 8    }  ],  "buffers": [    {      "byteLength": 575424,      "uri": "data:application/octet-stream;base64,"    }  ],  "accessors": [    {      "bufferView": 0,      "componentType": 5126,      "count": 4566,      "max": [        6.736464500427246,        4.139190196990967,        -0.19918474555015564      ],      "min": [        -7.920782566070557,        -10.512491226196289,        -5.296785354614258      ],      "type": "VEC3"    },    {      "bufferView": 1,      "componentType": 5126,      "count": 4566,      "max": [        0.9904171824455261,        0.9799493551254272,        0.7096468806266785      ],      "min": [        -0.9867854714393616,        -0.9866939187049866,        -0.999908447265625      ],      "type": "VEC3"    },    {      "bufferView": 2,      "componentType": 5126,      "count": 4566,      "max": [        1,        1      ],      "min": [        0,        0.01037629321217537      ],      "type": "VEC2"    },    {      "bufferView": 3,      "componentType": 5126,      "count": 9594,      "max": [        5.885103225708008,        3.083632707595825,        5.5616607666015625      ],      "min": [        -6.8462605476379395,        -9.647711753845215,        -0.7331302762031555      ],      "type": "VEC3"    },    {      "bufferView": 4,      "componentType": 5126,      "count": 9594,      "max": [        0.9874264001846313,        0.9874264001846313,        1      ],      "min": [        -0.9874264001846313,        -0.9874264001846313,        -0.695303201675415      ],      "type": "VEC3"    },    {      "bufferView": 5,      "componentType": 5126,      "count": 9594,      "max": [        1,        1      ],      "min": [        0,        0.03866695240139961      ],      "type": "VEC2"    },    {      "bufferView": 6,      "componentType": 5126,      "count": 102,      "max": [        3.2831997871398926,        -10.157744407653809,        -2.406755208969116      ],      "min": [        -4.39312219619751,        -21.130329132080078,        -5.291275978088379      ],      "type": "VEC3"    },    {      "bufferView": 7,      "componentType": 5126,      "count": 102,      "max": [        0.7071138620376587,        0.5773491859436035,        0.904538094997406      ],      "min": [        -0.7071138620376587,        -0.7071138620376587,        -0.904538094997406      ],      "type": "VEC3"    },    {      "bufferView": 8,      "componentType": 5126,      "count": 102,      "max": [        0.8749961853027344,        1      ],      "min": [        0.12500381469726562,        0      ],      "type": "VEC2"    },    {      "bufferView": 9,      "componentType": 5126,      "count": 102,      "max": [        3.2831997871398926,        14.326728820800781,        -2.4116647243499756      ],      "min": [        -4.39312219619751,        3.354145050048828,        -5.296185493469238      ],      "type": "VEC3"    },    {      "bufferView": 10,      "componentType": 5126,      "count": 102,      "max": [        0.7071138620376587,        0.5773491859436035,        0.904538094997406      ],      "min": [        -0.7071138620376587,        -0.7071138620376587,        -0.904538094997406      ],      "type": "VEC3"    },    {      "bufferView": 11,      "componentType": 5126,      "count": 102,      "max": [        0.8749961853027344,        1      ],      "min": [        0.12500381469726562,        0      ],      "type": "VEC2"    },    {      "bufferView": 12,      "componentType": 5126,      "count": 102,      "max": [        -6.298114776611328,        7.726489543914795,        -2.43562388420105      ],      "min": [        -18.520671844482422,        -2.9681642055511475,        -5.3201446533203125      ],      "type": "VEC3"    },    {      "bufferView": 13,      "componentType": 5126,      "count": 102,      "max": [        0.7583849430084229,        0.7583849430084229,        0.904538094997406      ],      "min": [        -0.7583849430084229,        -0.7583849430084229,        -0.904538094997406      ],      "type": "VEC3"    },    {      "bufferView": 14,      "componentType": 5126,      "count": 102,      "max": [        0.8749961853027344,        1      ],      "min": [        0.12500381469726562,        0      ],      "type": "VEC2"    },    {      "bufferView": 15,      "componentType": 5126,      "count": 102,      "max": [        16.63551902770996,        -4.318594455718994,        -2.407017707824707      ],      "min": [        4.446336269378662,        -15.68545150756836,        -5.291538238525391      ],      "type": "VEC3"    },    {      "bufferView": 16,      "componentType": 5126,      "count": 102,      "max": [        0.7940306067466736,        0.7940306067466736,        0.904538094997406      ],      "min": [        -0.7940306067466736,        -0.7940306067466736,        -0.904538094997406      ],      "type": "VEC3"    },    {      "bufferView": 17,      "componentType": 5126,      "count": 102,      "max": [        0.8749961853027344,        1      ],      "min": [        0.12500381469726562,        0      ],      "type": "VEC2"    },    {      "bufferView": 18,      "componentType": 5126,      "count": 6,      "max": [        56.18061828613281,        56.18061828613281,        -5.397963523864746      ],      "min": [        -56.18061828613281,        -56.18061828613281,        -5.397963523864746      ],      "type": "VEC3"    },    {      "bufferView": 19,      "componentType": 5126,      "count": 6,      "max": [        0,        0,        1      ],      "min": [        0,        0,        1      ],      "type": "VEC3"    },    {      "bufferView": 20,      "componentType": 5126,      "count": 6,      "max": [        1,        1      ],      "min": [        0,        0      ],      "type": "VEC2"    },    {      "bufferView": 21,      "componentType": 5126,      "count": 1512,      "max": [        7.263430118560791,        2.073127031326294,        -1.0070724487304688      ],      "min": [        4.193541049957275,        -1.088914394378662,        -5.297191619873047      ],      "type": "VEC3"    },    {      "bufferView": 22,      "componentType": 5126,      "count": 1512,      "max": [        0.9705496430397034,        0.9703055024147034,        0.999908447265625      ],      "min": [        -0.9714346528053284,        -0.9709768891334534,        -0.999908447265625      ],      "type": "VEC3"    },    {      "bufferView": 23,      "componentType": 5126,      "count": 1512,      "max": [        0.7894833087921143,        1      ],      "min": [        0.010101626627147198,        0.01037629321217537      ],      "type": "VEC2"    },    {      "bufferView": 24,      "componentType": 5126,      "count": 1896,      "max": [        -5.821257591247559,        -5.415772914886475,        -1.2715377807617188      ],      "min": [        -29.608592987060547,        -20.76752471923828,        -5.5616607666015625      ],      "type": "VEC3"    },    {      "bufferView": 25,      "componentType": 5126,      "count": 1896,      "max": [        0.9705496430397034,        0.9703055024147034,        0.999908447265625      ],      "min": [        -0.9714346528053284,        -0.9709768891334534,        -0.999908447265625      ],      "type": "VEC3"    },    {      "bufferView": 26,      "componentType": 5126,      "count": 1896,      "max": [        0.7894833087921143,        1      ],      "min": [        0.010101626627147198,        0.01037629321217537      ],      "type": "VEC2"    }  ],  "materials": [    {      "pbrMetallicRoughness": {        "baseColorFactor": [          0.6038273388475408,          0.6038273388475408,          0.6038273388475408,          1        ],        "metallicFactor": 0.5,        "roughnessFactor": 0.5      },      "doubleSided": true,      "name": "mat0"    },    {      "pbrMetallicRoughness": {        "baseColorFactor": [          0.6038273388475408,          0.6038273388475408,          0.6038273388475408,          1        ],        "metallicFactor": 0.5,        "roughnessFactor": 0.5      },      "doubleSided": true,      "name": "mat1"    },    {      "pbrMetallicRoughness": {        "metallicFactor": 0.5,        "roughnessFactor": 0.5      },      "doubleSided": true,      "name": "mat2"    }  ],  "meshes": [    {      "primitives": [        {          "mode": 4,          "attributes": {            "POSITION": 0,            "NORMAL": 1,            "TEXCOORD_0": 2          },          "material": 0        }      ]    },    {      "primitives": [        {          "mode": 4,          "attributes": {            "POSITION": 3,            "NORMAL": 4,            "TEXCOORD_0": 5          },          "material": 1        }      ]    },    {      "primitives": [        {          "mode": 4,          "attributes": {            "POSITION": 6,            "NORMAL": 7,            "TEXCOORD_0": 8          },          "material": 2        }      ]    },    {      "primitives": [        {          "mode": 4,          "attributes": {            "POSITION": 9,            "NORMAL": 10,            "TEXCOORD_0": 11          },          "material": 2        }      ]    },    {      "primitives": [        {          "mode": 4,          "attributes": {            "POSITION": 12,            "NORMAL": 13,            "TEXCOORD_0": 14          },          "material": 2        }      ]    },    {      "primitives": [        {          "mode": 4,          "attributes": {            "POSITION": 15,            "NORMAL": 16,            "TEXCOORD_0": 17          },          "material": 2        }      ]    },    {      "primitives": [        {          "mode": 4,          "attributes": {            "POSITION": 18,            "NORMAL": 19,            "TEXCOORD_0": 20          },          "material": 2        }      ]    },    {      "primitives": [        {          "mode": 4,          "attributes": {            "POSITION": 21,            "NORMAL": 22,            "TEXCOORD_0": 23          },          "material": 2        }      ]    },    {      "primitives": [        {          "mode": 4,          "attributes": {            "POSITION": 24,            "NORMAL": 25,            "TEXCOORD_0": 26          },          "material": 2        }      ]    }  ]}